<?xml version="1.0" standalone="no"?>
<!DOCTYPE svg PUBLIC "-//W3C//DTD SVG 20010904//EN"
 "http://www.w3.org/TR/2001/REC-SVG-20010904/DTD/svg10.dtd">
<svg version="1.0" xmlns="http://www.w3.org/2000/svg"
 width="595.000000pt" height="595.000000pt" viewBox="0 0 595.000000 595.000000"
 preserveAspectRatio="xMidYMid meet">
<metadata>
Created by potrace 1.14, written by Peter Selinger 2001-2017
</metadata>
<g transform="translate(0.000000,595.000000) scale(0.100000,-0.100000)"
fill="#000000" stroke="none">
<path d="M2535 4272 c-49 -31 -130 -83 -180 -115 -49 -32 -103 -67 -120 -77
-16 -11 -100 -65 -185 -121 -147 -97 -271 -176 -315 -202 -11 -7 -22 -14 -25
-17 -17 -17 -120 -79 -121 -73 -1 5 -2 78 -3 164 -1 115 -5 161 -15 173 -12
14 -44 16 -247 16 -211 0 -236 -2 -252 -18 -16 -16 -17 -45 -17 -351 l0 -334
-135 -89 c-74 -48 -142 -92 -150 -98 -8 -6 -49 -32 -90 -58 -315 -203 -396
-257 -407 -268 -28 -27 -4 -84 35 -84 18 0 135 68 140 82 2 4 8 8 13 8 5 0 31
15 57 33 26 17 55 37 65 42 19 12 335 216 484 313 375 244 628 408 637 411 6
2 13 7 16 11 3 3 140 93 305 200 165 106 365 236 444 288 80 52 151 96 158 99
12 5 344 -203 351 -219 2 -5 8 -8 13 -8 5 0 80 -46 167 -103 295 -193 371
-242 389 -252 10 -5 34 -21 53 -35 37 -27 66 -45 90 -56 8 -4 17 -10 20 -13
11 -13 90 -61 100 -61 5 0 10 -5 10 -10 0 -6 8 -14 18 -17 9 -4 88 -53 175
-110 86 -57 159 -102 161 -100 3 1 15 -7 28 -18 30 -26 86 -65 93 -65 3 0 11
-5 18 -10 16 -15 328 -218 347 -227 8 -4 67 -41 130 -83 63 -42 126 -82 138
-89 47 -25 93 9 77 58 -3 10 -36 38 -73 62 -37 23 -93 60 -125 81 -32 21 -61
38 -63 38 -3 0 -10 5 -17 11 -7 5 -59 41 -117 78 -58 38 -158 103 -223 145
-65 42 -122 76 -127 76 -6 0 -10 4 -10 8 0 5 -12 15 -27 23 -16 7 -44 25 -63
39 -19 14 -43 30 -53 35 -9 6 -89 57 -178 115 -88 58 -168 110 -177 115 -9 6
-42 26 -72 46 -154 101 -206 134 -215 139 -5 3 -48 30 -95 61 -47 30 -93 60
-104 66 -16 9 -3 20 100 88 66 43 151 99 190 124 l70 47 270 -177 c380 -250
657 -432 814 -535 74 -48 137 -92 138 -96 2 -4 7 -8 12 -8 5 0 44 -24 87 -52
43 -29 83 -55 88 -58 6 -3 69 -44 140 -91 72 -47 207 -136 300 -197 94 -61
175 -114 180 -119 6 -5 35 -24 65 -43 30 -19 57 -38 60 -42 4 -4 20 -10 36
-14 51 -10 80 48 41 84 -22 20 -295 202 -304 202 -2 0 -9 5 -16 11 -7 6 -82
56 -167 112 -85 55 -201 132 -258 169 -56 37 -107 68 -112 68 -4 0 -10 3 -12
8 -4 9 -125 92 -135 92 -4 0 -20 10 -35 23 -14 13 -43 32 -62 42 -20 11 -36
23 -36 27 0 5 -4 8 -9 8 -5 0 -83 49 -173 108 -90 60 -246 163 -348 229 -102
67 -190 126 -197 132 -7 6 -17 11 -23 11 -5 0 -10 5 -10 10 0 6 -4 10 -10 10
-5 0 -77 45 -160 99 -87 58 -157 98 -168 96 -17 -3 -241 -142 -252 -156 -3 -3
-30 -21 -60 -38 -30 -17 -78 -47 -106 -65 l-51 -34 -84 54 c-46 29 -91 58 -99
64 -83 57 -327 210 -335 210 -5 0 -50 -26 -100 -58z m-1054 -360 c0 -4 1 -77
2 -162 l1 -155 -60 -40 c-137 -93 -256 -167 -261 -161 -4 4 -8 486 -4 516 1 8
321 10 322 2z"/>
<path d="M575 2351 c-82 -21 -141 -77 -152 -144 -3 -23 -6 -44 -6 -47 1 -3 4
-22 7 -42 12 -74 63 -109 234 -158 96 -28 133 -60 134 -117 1 -80 -56 -124
-151 -119 -63 4 -99 27 -120 77 -15 38 -17 39 -62 37 -41 -1 -47 -4 -44 -22
20 -153 244 -225 391 -125 53 36 78 88 78 161 0 46 -5 63 -28 92 -33 44 -57
57 -192 101 -105 34 -136 55 -150 97 -10 33 5 83 32 109 22 20 36 24 92 24 75
0 112 -19 133 -67 10 -24 17 -28 55 -28 23 0 45 3 47 8 3 4 -1 25 -8 46 -14
41 -49 77 -99 103 -33 17 -147 26 -191 14z"/>
<path d="M1693 2345 c-102 -31 -176 -97 -222 -195 -22 -47 -25 -69 -26 -150 0
-85 4 -102 30 -155 94 -195 336 -261 515 -141 98 66 142 148 153 291 9 106
-57 240 -150 304 -75 51 -214 73 -300 46z m212 -90 c94 -45 145 -140 142 -263
-4 -127 -58 -212 -159 -250 -71 -27 -173 -20 -227 14 -85 55 -124 134 -125
249 0 67 4 88 26 130 52 100 132 148 238 142 37 -2 82 -11 105 -22z"/>
<path d="M4232 2338 c-68 -23 -145 -83 -182 -143 -25 -41 -53 -132 -46 -151 3
-8 2 -14 -2 -14 -5 0 -7 -12 -6 -27 12 -144 59 -233 160 -300 119 -79 277 -77
397 6 56 39 84 73 116 140 23 49 26 68 25 156 0 88 -3 107 -27 155 -31 64 -47
84 -102 126 -91 70 -219 90 -333 52z m250 -94 c89 -55 130 -144 123 -264 -12
-186 -159 -293 -334 -244 -65 19 -143 91 -161 150 -53 177 11 329 160 381 55
20 161 8 212 -23z"/>
<path d="M5405 2349 c-46 -11 -105 -60 -129 -106 -16 -32 -20 -99 -8 -139 20
-63 75 -100 205 -136 81 -22 115 -38 140 -66 26 -28 28 -85 5 -122 -53 -88
-226 -72 -258 24 -10 31 -14 34 -53 34 -23 1 -45 -4 -48 -10 -16 -26 32 -109
82 -141 66 -43 188 -54 262 -23 82 34 135 124 124 210 -11 77 -66 123 -196
162 -151 46 -180 69 -175 140 1 25 8 52 15 60 58 70 223 49 243 -31 6 -23 11
-25 57 -25 l51 0 -7 33 c-18 82 -98 138 -203 143 -37 2 -85 -1 -107 -7z"/>
<path d="M2716 2341 c-1 -4 -2 -159 -2 -346 l1 -340 45 0 45 0 0 253 c0 138 1
252 3 252 1 0 16 -30 33 -67 16 -38 36 -81 44 -98 7 -16 21 -48 31 -70 115
-262 119 -270 153 -273 30 -3 33 -1 62 65 17 37 46 101 65 141 19 41 34 76 34
79 0 2 13 32 29 66 16 34 37 81 47 104 9 23 20 40 23 38 4 -2 6 -114 6 -249
l0 -246 45 0 45 0 1 345 c0 190 -2 345 -5 346 -24 5 -82 4 -89 0 -5 -3 -26
-44 -47 -91 -20 -47 -43 -98 -51 -115 -7 -16 -39 -88 -72 -160 -32 -71 -65
-145 -73 -162 -16 -39 -25 -41 -35 -10 -4 12 -21 54 -39 92 -17 39 -63 140
-101 225 -109 245 -95 224 -149 225 -25 1 -47 -1 -49 -4z"/>
</g>
</svg>
